HIERARCHY
ROOT Hips
{
    OFFSET 0.000000 0.000000 0.000000
    CHANNELS 6 Xposition Yposition Zposition Zrotation Xrotation Yrotation
    JOINT Spine
    {
        OFFSET 0.000001 7.292995 0.000000
        CHANNELS 3 Zrotation Xrotation Yrotation
        JOINT Spine1
        {
            OFFSET -0.000000 20.255388 0.000001
            CHANNELS 3 Zrotation Xrotation Yrotation
            JOINT Neck
            {
                OFFSET 0.000001 20.786594 0.000000
                CHANNELS 3 Zrotation Xrotation Yrotation
                JOINT Head
                {
                    OFFSET 0.000003 12.530788 1.776080
                    CHANNELS 3 Zrotation Xrotation Yrotation
                    End Site
                    {
                        OFFSET 0.000000 17.760757 0.000000
                    }
                }
            }
            JOINT LeftShoulder
            {
                OFFSET 3.550532 15.465697 -0.908801
                CHANNELS 3 Zrotation Xrotation Yrotation
                JOINT LeftArm
                {
                    OFFSET 12.513301 -0.000005 0.000001
                    CHANNELS 3 Zrotation Xrotation Yrotation
                    JOINT LeftForeArm
                    {
                        OFFSET 24.225992 0.000005 0.000000
                        CHANNELS 3 Zrotation Xrotation Yrotation
                        JOINT LeftHand
                        {
                            OFFSET 20.711395 -0.000004 0.000000
                            CHANNELS 3 Zrotation Xrotation Yrotation
                            JOINT LeftHandThumb1
                            {
                                OFFSET 2.121964 -2.411326 3.375861
                                CHANNELS 3 Zrotation Xrotation Yrotation
                                JOINT LeftHandThumb2
                                {
                                    OFFSET 2.803212 -0.000001 -0.000002
                                    CHANNELS 3 Zrotation Xrotation Yrotation
                                    JOINT LeftHandThumb3
                                    {
                                        OFFSET 2.395929 0.000000 0.000000
                                        CHANNELS 3 Zrotation Xrotation Yrotation
                                        End Site
                                        {
                                            OFFSET 2.127676 0.000000 0.000000
                                        }
                                    }
                                }
                            }
                            JOINT LeftHandIndex1
                            {
                                OFFSET 8.680776 0.000004 3.375861
                                CHANNELS 3 Zrotation Xrotation Yrotation
                                JOINT LeftHandIndex2
                                {
                                    OFFSET 4.218180 -0.000002 0.000001
                                    CHANNELS 3 Zrotation Xrotation Yrotation
                                    JOINT LeftHandIndex3
                                    {
                                        OFFSET 2.109090 0.000001 -0.000000
                                        CHANNELS 3 Zrotation Xrotation Yrotation
                                        End Site
                                        {
                                            OFFSET 1.872952 0.000000 0.000000
                                        }
                                    }
                                }
                            }
                            JOINT LeftHandMiddle1
                            {
                                OFFSET 8.680775 0.000001 1.118862
                                CHANNELS 3 Zrotation Xrotation Yrotation
                                JOINT LeftHandMiddle2
                                {
                                    OFFSET 4.640000 0.000002 -0.000000
                                    CHANNELS 3 Zrotation Xrotation Yrotation
                                    JOINT LeftHandMiddle3
                                    {
                                        OFFSET 2.530906 0.000005 0.000000
                                        CHANNELS 3 Zrotation Xrotation Yrotation
                                        End Site
                                        {
                                            OFFSET 2.247544 0.000000 0.000000
                                        }
                                    }
                                }
                            }
                            JOINT LeftHandRing1
                            {
                                OFFSET 8.198514 -0.000004 -1.118859
                                CHANNELS 3 Zrotation Xrotation Yrotation
                                JOINT LeftHandRing2
                                {
                                    OFFSET 4.218182 -0.000003 -0.000001
                                    CHANNELS 3 Zrotation Xrotation Yrotation
                                    JOINT LeftHandRing3
                                    {
                                        OFFSET 2.109086 0.000004 0.000001
                                        CHANNELS 3 Zrotation Xrotation Yrotation
                                        End Site
                                        {
                                            OFFSET 1.872952 0.000000 0.000000
                                        }
                                    }
                                }
                            }
                            JOINT LeftHandPinky1
                            {
                                OFFSET 7.716242 0.000005 -3.375859
                                CHANNELS 3 Zrotation Xrotation Yrotation
                                JOINT LeftHandPinky2
                                {
                                    OFFSET 3.374535 0.000004 0.000002
                                    CHANNELS 3 Zrotation Xrotation Yrotation
                                    JOINT LeftHandPinky3
                                    {
                                        OFFSET 1.687275 0.000002 -0.000001
                                        CHANNELS 3 Zrotation Xrotation Yrotation
                                        End Site
                                        {
                                            OFFSET 1.498360 0.000000 0.000000
                                        }
                                    }
                                }
                            }
                        }
                    }
                }
            }
            JOINT RightShoulder
            {
                OFFSET -3.550531 15.465694 -0.908802
                CHANNELS 3 Zrotation Xrotation Yrotation
                JOINT RightArm
                {
                    OFFSET -12.513298 -0.000004 0.000001
                    CHANNELS 3 Zrotation Xrotation Yrotation
                    JOINT RightForeArm
                    {
                        OFFSET -24.225996 -0.000002 -0.000000
                        CHANNELS 3 Zrotation Xrotation Yrotation
                        JOINT RightHand
                        {
                            OFFSET -20.711401 0.000005 0.000001
                            CHANNELS 3 Zrotation Xrotation Yrotation
                            JOINT RightHandThumb1
                            {
                                OFFSET -2.121970 -2.411334 3.375861
                                CHANNELS 3 Zrotation Xrotation Yrotation
                                JOINT RightHandThumb2
                                {
                                    OFFSET -2.803210 0.000003 -0.000004
                                    CHANNELS 3 Zrotation Xrotation Yrotation
                                    JOINT RightHandThumb3
                                    {
                                        OFFSET -2.395930 -0.000001 0.000002
                                        CHANNELS 3 Zrotation Xrotation Yrotation
                                        End Site
                                        {
                                            OFFSET -2.127676 0.000000 0.000000
                                        }
                                    }
                                }
                            }
                            JOINT RightHandIndex1
                            {
                                OFFSET -8.680779 0.000001 3.375860
                                CHANNELS 3 Zrotation Xrotation Yrotation
                                JOINT RightHandIndex2
                                {
                                    OFFSET -4.218180 0.000000 -0.000000
                                    CHANNELS 3 Zrotation Xrotation Yrotation
                                    JOINT RightHandIndex3
                                    {
                                        OFFSET -2.109090 0.000001 -0.000000
                                        CHANNELS 3 Zrotation Xrotation Yrotation
                                        End Site
                                        {
                                            OFFSET -1.872952 0.000000 0.000000
                                        }
                                    }
                                }
                            }
                            JOINT RightHandMiddle1
                            {
                                OFFSET -8.680780 0.000001 1.118860
                                CHANNELS 3 Zrotation Xrotation Yrotation
                                JOINT RightHandMiddle2
                                {
                                    OFFSET -4.640000 -0.000002 0.000001
                                    CHANNELS 3 Zrotation Xrotation Yrotation
                                    JOINT RightHandMiddle3
                                    {
                                        OFFSET -2.530910 0.000001 -0.000000
                                        CHANNELS 3 Zrotation Xrotation Yrotation
                                        End Site
                                        {
                                            OFFSET -2.247544 0.000000 0.000000
                                        }
                                    }
                                }
                            }
                            JOINT RightHandRing1
                            {
                                OFFSET -8.198519 0.000005 -1.118860
                                CHANNELS 3 Zrotation Xrotation Yrotation
                                JOINT RightHandRing2
                                {
                                    OFFSET -4.218180 -0.000006 0.000000
                                    CHANNELS 3 Zrotation Xrotation Yrotation
                                    JOINT RightHandRing3
                                    {
                                        OFFSET -2.109090 0.000001 -0.000000
                                        CHANNELS 3 Zrotation Xrotation Yrotation
                                        End Site
                                        {
                                            OFFSET -1.872952 0.000000 0.000000
                                        }
                                    }
                                }
                            }
                            JOINT RightHandPinky1
                            {
                                OFFSET -7.716248 -0.000002 -3.375859
                                CHANNELS 3 Zrotation Xrotation Yrotation
                                JOINT RightHandPinky2
                                {
                                    OFFSET -3.374540 0.000000 0.000000
                                    CHANNELS 3 Zrotation Xrotation Yrotation
                                    JOINT RightHandPinky3
                                    {
                                        OFFSET -1.687270 0.000004 0.000001
                                        CHANNELS 3 Zrotation Xrotation Yrotation
                                        End Site
                                        {
                                            OFFSET -1.498360 0.000000 0.000000
                                        }
                                    }
                                }
                            }
                        }
                    }
                }
            }
        }
    }
    JOINT LeftUpLeg
    {
        OFFSET 8.880376 -0.000000 -0.000000
        CHANNELS 3 Zrotation Xrotation Yrotation
        JOINT LeftLeg
        {
            OFFSET -0.000001 -40.387405 -0.000001
            CHANNELS 3 Zrotation Xrotation Yrotation
            JOINT LeftFoot
            {
                OFFSET -0.000001 -36.911297 -0.000001
                CHANNELS 3 Zrotation Xrotation Yrotation
                JOINT LeftToeBase
                {
                    OFFSET -0.000002 -5.772240 13.320604
                    CHANNELS 3 Zrotation Xrotation Yrotation
                    End Site
                    {
                        OFFSET 0.000000 0.000000 3.552151
                    }
                }
            }
        }
    }
    JOINT RightUpLeg
    {
        OFFSET -8.880376 0.000000 0.000000
        CHANNELS 3 Zrotation Xrotation Yrotation
        JOINT RightLeg
        {
            OFFSET -0.000001 -40.387390 0.000000
            CHANNELS 3 Zrotation Xrotation Yrotation
            JOINT RightFoot
            {
                OFFSET 0.000002 -36.911297 -0.000001
                CHANNELS 3 Zrotation Xrotation Yrotation
                JOINT RightToeBase
                {
                    OFFSET 0.000001 -5.772238 13.320600
                    CHANNELS 3 Zrotation Xrotation Yrotation
                    End Site
                    {
                        OFFSET 0.000000 0.000000 3.552151
                    }
                }
            }
        }
    }
}
MOTION
Frames: 5
Frame Time: 0.013889
-4.298018    84.160576    7.158233    1.453010    9.787914    3.921685    -0.254300    -23.506386    -0.637559    2.014538    15.146143    -1.091155    -3.595057    -9.437905    -0.578757    1.551768    2.631612    -0.059628    -2.510890    5.629840    -1.434252    -63.405426    35.306370    -12.367171    -9.699087    -24.603678    -22.319267    -4.582951    -4.237747    6.367029    31.495024    34.217678    -42.878864    -12.820611    -0.393378    23.314331    -0.000000    0.000000    -0.000000    -8.695198    17.806213    -1.918087    -8.275669    -0.000002    0.000002    -8.275679    0.000000    -0.000003    -7.802007    8.918037    -1.081033    -7.707102    0.000002    0.000001    -7.707111    -0.000003    -0.000002    -7.514296    -8.923965    -1.100670    -7.422832    -0.000001    0.000001    -7.422825    -0.000001    -0.000000    -7.501817    -17.855711    -2.169115    -7.138552    -0.000001    0.000002    -7.138544    -0.000000    0.000002    8.422726    5.442343    2.605883    61.782749    29.734190    7.611011    10.808640    -29.157200    21.398159    4.672698    -11.439347    -3.525404    -41.777706    26.080952    45.592957    12.438169    -0.228558    -23.316414    -0.000000    0.000000    -0.000000    16.829453    17.275843    5.338062    16.049179    -0.000003    -0.000006    16.049175    0.000002    -0.000000    14.729492    8.708848    2.956016    14.555899    -0.000003    -0.000007    14.555895    0.000000    -0.000000    13.974675    -8.737801    -1.213018    13.809260    -0.000002    -0.000009    13.809252    0.000001    -0.000000    13.710068    -17.518885    -2.556013    13.062599    0.000001    -0.000010    13.062606    -0.000000    0.000002    -2.373519    -7.793879    6.600235    0.000000    5.100194    -0.000000    -0.349419    -2.584671    -13.808608    -0.000000    0.894403    0.000000    -0.131767    -6.243165    -11.048288    -0.000000    4.536585    0.000002    7.886073    -7.369769    4.034013    -0.000001    3.086277    -0.000000    
-4.282037    84.154602    7.174369    1.548309    9.807587    3.897435    -0.259610    -23.467375    -0.651891    2.074303    15.140424    -1.119483    -3.643269    -9.564715    -0.505249    1.502104    2.642186    0.032809    -2.364632    5.650239    -1.575899    -62.882397    36.122116    -12.763124    -9.671219    -24.199366    -22.574476    -5.118656    -3.958003    6.538713    31.351440    34.327820    -42.796185    -12.897068    -0.426320    23.313793    -0.000000    0.000000    -0.000000    -8.822115    17.800508    -1.861449    -8.396645    0.000002    0.000000    -8.396652    -0.000002    -0.000003    -7.786202    8.918370    -1.074563    -7.691498    0.000002    0.000001    -7.691499    -0.000000    0.000002    -7.429388    -8.925670    -1.088818    -7.338919    -0.000000    0.000002    -7.338925    0.000000    -0.000001    -7.342051    -17.861780    -2.122756    -6.986338    0.000001    0.000001    -6.986347    -0.000000    -0.000000    8.421355    5.418106    2.674697    61.615116    29.776777    7.683444    10.871975    -29.207836    21.483955    5.151027    -11.477360    -3.480245    -41.923828    25.956800    45.631283    12.394584    -0.209770    -23.316568    -0.000000    0.000000    -0.000000    17.354259    17.230133    5.766979    16.552450    -0.000006    -0.000008    16.552448    -0.000002    0.000001    15.146610    8.692209    3.185203    14.968542    -0.000006    -0.000007    14.968554    -0.000002    0.000001    14.346061    -8.723740    -1.040931    14.176596    -0.000003    0.000001    14.176595    0.000000    0.000003    14.046816    -17.495010    -2.223279    13.384635    -0.000000    0.000000    13.384650    -0.000001    -0.000002    -2.486171    -7.841835    6.495568    0.000000    5.194887    0.000000    -0.262707    -2.586561    -13.697933    -0.000000    0.861056    0.000000    -0.229604    -6.290464    -11.009288    0.000000    4.668314    0.000000    8.051612    -7.382442    3.981714    0.000001    3.031024    -0.000000    
-4.271437    84.149895    7.182923    1.677660    9.836820    3.861212    -0.276914    -23.390297    -0.697501    2.178679    15.121592    -1.186938    -3.680839    -9.738564    -0.384578    1.436407    2.679246    0.174544    -2.172013    5.677794    -1.710289    -62.081768    37.264732    -13.368500    -9.711517    -23.778322    -22.999035    -5.957716    -3.732902    6.716308    31.352755    34.323566    -42.843899    -12.895655    -0.425722    23.313795    -0.000000    0.000000    -0.000000    -9.013558    17.791775    -1.756589    -8.579144    -0.000005    -0.000000    -8.579146    0.000003    0.000001    -7.786315    8.918367    -1.051377    -7.691590    -0.000002    0.000002    -7.691604    -0.000002    -0.000001    -7.337194    -8.927503    -1.072682    -7.247833    -0.000001    -0.000000    -7.247833    0.000000    -0.000000    -7.150681    -17.868889    -2.060389    -6.804061    0.000000    0.000001    -6.804059    0.000001    0.000000    8.445925    5.374765    2.781359    61.333862    29.863173    7.825041    10.932604    -29.233404    21.579824    5.722973    -11.512357    -3.361598    -42.056599    25.853807    45.640636    12.368018    -0.198323    -23.316679    -0.000000    0.000000    -0.000000    17.997082    17.172266    6.432812    17.169243    0.000004    0.000004    17.169243    -0.000000    -0.000000    15.687022    8.669969    3.531599    15.503258    0.000004    0.000006    15.503239    0.000002    -0.000001    14.845083    -8.704281    -0.895431    14.670251    0.000001    0.000002    14.670240    0.000000    0.000001    14.519922    -17.460497    -1.941393    13.837255    0.000001    0.000002    13.837251    0.000000    -0.000002    -2.633099    -7.954023    6.309260    -0.000000    5.392969    0.000000    -0.141801    -2.626588    -13.480228    0.000000    0.808314    0.000000    -0.369839    -6.407296    -10.946274    0.000000    4.868653    -0.000001    8.207658    -7.584736    3.872367    0.000000    2.952620    0.000000    
-4.264073    84.147888    7.191738    1.767214    9.874212    3.830230    -0.287281    -23.334972    -0.725230    2.260528    15.105378    -1.232627    -3.718869    -9.866629    -0.375096    1.400026    2.659711    0.201241    -2.039690    5.686986    -1.804762    -61.375622    38.222393    -13.949239    -9.747793    -23.491653    -23.314657    -6.443466    -3.595111    6.955147    31.397833    34.285950    -42.913063    -12.870917    -0.415077    23.313990    -0.000000    0.000000    -0.000000    -9.085094    17.788460    -1.668296    -8.647320    -0.000000    0.000003    -8.647331    0.000002    -0.000002    -7.755488    8.919013    -1.022932    -7.661151    -0.000002    -0.000001    -7.661149    -0.000002    0.000002    -7.256461    -8.929086    -1.079985    -7.168075    -0.000001    -0.000000    -7.168071    -0.000001    0.000000    -7.015139    -17.873808    -2.058461    -6.674973    0.000001    0.000002    -6.675001    -0.000002    -0.000001    8.480035    5.346421    2.887028    61.088005    29.925272    7.958920    10.965127    -29.271124    21.616478    6.174433    -11.553404    -3.235249    -42.152302    25.765099    45.683681    12.344959    -0.188376    -23.316755    -0.000000    0.000000    -0.000000    18.407948    17.134192    6.984044    17.563675    -0.000003    0.000003    17.563667    -0.000000    -0.000000    16.056601    8.654327    3.812148    15.868922    -0.000006    -0.000003    15.868912    0.000002    -0.000000    15.200185    -8.690039    -0.800368    15.021543    -0.000002    -0.000004    15.021543    0.000000    -0.000000    14.872015    -17.434092    -1.753091    14.174170    -0.000006    -0.000004    14.174165    0.000001    -0.000000    -2.739593    -8.075307    6.127571    -0.000000    5.587482    0.000002    -0.017546    -2.654546    -13.279190    0.000000    0.768509    0.000000    -0.460283    -6.506648    -10.843999    0.000000    5.020972    -0.000000    8.139088    -7.729485    3.772079    -0.000001    2.976207    0.000001    
-4.255518    84.144958    7.202951    1.863600    9.923598    3.777284    -0.294474    -23.272976    -0.745257    2.369807    15.081619    -1.278382    -3.776212    -10.000973    -0.331186    1.374603    2.550718    0.268442    -1.904797    5.702641    -1.839294    -60.614952    39.237495    -14.604545    -9.861570    -23.293736    -23.730192    -6.765884    -3.533002    7.167190    31.467146    34.231476    -42.967899    -12.835266    -0.399688    23.314236    -0.000000    0.000000    -0.000000    -9.048262    17.790169    -1.603591    -8.612212    -0.000002    -0.000001    -8.612215    -0.000003    -0.000002    -7.680661    8.920563    -0.996561    -7.587194    -0.000002    -0.000000    -7.587203    -0.000002    -0.000002    -7.161973    -8.930919    -1.103393    -7.074697    -0.000001    0.000001    -7.074698    0.000001    -0.000003    -6.896720    -17.878025    -2.098261    -6.562189    -0.000000    -0.000001    -6.562181    -0.000000    0.000000    8.530458    5.297362    2.939731    60.814545    29.972790    8.119215    11.034056    -29.356218    21.690708    6.562739    -11.631763    -3.171732    -42.216137    25.695023    45.739235    12.334140    -0.183723    -23.316792    -0.000000    0.000000    -0.000000    18.782461    17.098745    7.515736    17.923317    0.000007    -0.000012    17.923351    -0.000001    0.000002    16.420671    8.638566    4.078372    16.229179    0.000002    -0.000009    16.229212    0.000002    0.000001    15.564646    -8.675078    -0.685365    15.382111    0.000007    -0.000000    15.382133    0.000001    0.000001    15.249033    -17.405115    -1.520256    14.535046    0.000010    0.000006    14.535069    -0.000001    0.000002    -2.858817    -8.210423    5.921601    -0.000000    5.795093    0.000001    0.152805    -2.702523    -13.024043    -0.000000    0.725038    -0.000001    -0.550003    -6.610682    -10.733779    0.000000    5.146634    -0.000001    7.999679    -7.852331    3.669225    0.000001    3.040390    -0.000000    
